<svg xmlns="http://www.w3.org/2000/svg" version="1.1" width="16" height="16" viewBox="0 0 16 16">
            <g>
              <path d="M4 1a3 3 0 0 0-3 3v1h2V4a1 1 0 0 1 1-1h8a1 1 0 0 1 1 1v6a1 1 0 0 1-1 1H9v2h3a3 3 0 0 0 3-3V4a3 3 0 0 0-3-3zm5 13.03V16h3c1 0 1-1 1-1s-.05-.85-4-.97z"></path>
              <path d="M102.28 324c-.7 0-1.28.57-1.28 1.28v7.44c0 .7.57 1.28 1.28 1.28h4.44c.7 0 1.28-.57 1.28-1.28v-7.44c0-.7-.57-1.28-1.28-1.28H104Zm.13 1h.59a1 1 0 0 0 1 1h1a1 1 0 0 0 1-1h.59a.4.4 0 0 1 .41.41v6.16a.4.4 0 0 1-.41.41h-4.18a.4.4 0 0 1-.41-.4v-6.17a.4.4 0 0 1 .41-.41Z" style="marker:none" transform="translate(-100 -318)"></path>
            </g>
          </svg>